<svg xmlns="http://www.w3.org/2000/svg" xmlns:xlink="http://www.w3.org/1999/xlink" width="268.342" height="76.058" viewBox="0 0 268.342 76.058">
  <defs>
    <linearGradient id="linear-gradient" x1="0.639" y1="0.798" x2="0.114" y2="0.129" gradientUnits="objectBoundingBox">
      <stop offset="0" stop-color="#0e9ed2"/>
      <stop offset="1" stop-color="#0a689c"/>
    </linearGradient>
    <linearGradient id="linear-gradient-2" x1="1.233" y1="0.376" x2="-0.308" y2="0.524" gradientUnits="objectBoundingBox">
      <stop offset="0" stop-color="#6d6e72"/>
      <stop offset="1" stop-color="#434242"/>
    </linearGradient>
    <linearGradient id="linear-gradient-3" x1="0.701" y1="0.123" x2="-0.015" y2="0.913" xlink:href="#linear-gradient"/>
    <linearGradient id="linear-gradient-4" x1="0.978" y1="0.171" x2="0.106" y2="0.679" xlink:href="#linear-gradient-2"/>
    <linearGradient id="linear-gradient-5" x1="0.894" y1="0.213" x2="0.03" y2="0.686" xlink:href="#linear-gradient-2"/>
    <linearGradient id="linear-gradient-6" x1="1.317" y1="0.416" x2="-0.393" y2="0.483" xlink:href="#linear-gradient-2"/>
    <linearGradient id="linear-gradient-7" x1="0.883" y1="0.208" x2="0.041" y2="0.691" xlink:href="#linear-gradient-2"/>
    <linearGradient id="linear-gradient-9" x1="0.939" y1="0.111" x2="0.088" y2="0.725" xlink:href="#linear-gradient"/>
    <linearGradient id="linear-gradient-10" x1="1.013" y1="0.271" x2="-0.09" y2="0.629" xlink:href="#linear-gradient-2"/>
    <linearGradient id="linear-gradient-11" x1="0.881" y1="0.207" x2="0.043" y2="0.692" xlink:href="#linear-gradient-2"/>
    <linearGradient id="linear-gradient-12" x1="0.883" y1="0.208" x2="0.041" y2="0.691" xlink:href="#linear-gradient-2"/>
  </defs>
  <g id="Layer_x0020_1" transform="translate(1.98)">
    <g id="_948312144" transform="translate(-1.98)">
      <path id="Path_6" data-name="Path 6" d="M-1.98,0H266.362V76.058H-1.98Z" transform="translate(1.98)" fill="none" fill-rule="evenodd"/>
      <g id="Group_5" data-name="Group 5" transform="translate(20.696 2.731)">
        <path id="Path_7" data-name="Path 7" d="M190.428,182.034,159.663,141.01l-5.793,6.485,22.384,30.756C178.257,181.972,183.248,182.3,190.428,182.034Z" transform="translate(-139.004 -111.566)" fill-rule="evenodd" fill="url(#linear-gradient)"/>
        <path id="Path_8" data-name="Path 8" d="M268.664,63.61a24.788,24.788,0,0,1,3.774,11.183s.157,20.727.157,22.713.025,11.265-.317,13.122-.835,3.977-.835,3.977l-8.611-13.791s-1.013-.778-.669-4.6c.094-1.038.178-3.071.224-5.54.125-6.617,0-15.938-.828-17.907-.094-.221-.185-.443-.278-.659l7.381-8.5Z" transform="translate(-221.906 -51.827)" fill-rule="evenodd" fill="url(#linear-gradient-2)"/>
        <path id="Path_9" data-name="Path 9" d="M167.47,12.308l-43.94,51.75.924-14.081,28.631-34.712c2.232-3.6,7.231-3.637,14.384-2.955Z" transform="translate(-115.587 -11.968)" fill-rule="evenodd" fill="url(#linear-gradient-3)"/>
        <path id="Path_10" data-name="Path 10" d="M98.589,51.167,98.6,22.679a82.964,82.964,0,0,1,17.962.287l6.32-7.9c-4.411-2.615-19.646-1.6-34.162-1.86V83.527c14.517-.26,29.752.755,34.162-1.86l-6.32-7.895a83.108,83.108,0,0,1-17.962.285l-.011-22.888Z" transform="translate(-88.72 -12.927)" fill-rule="evenodd" fill="url(#linear-gradient-4)"/>
      </g>
      <g id="Group_7" data-name="Group 7" transform="translate(80.352 14.551)">
        <g id="Group_6" data-name="Group 6">
          <path id="Path_11" data-name="Path 11" d="M350.17,95.76V65.07h6.891q5.144,0,7.258,2.257t2.117,7.108V85.727q0,5.052-2.1,7.544t-6.957,2.489Zm4.424-3.071h2.489a7.449,7.449,0,0,0,1.784-.2,6.428,6.428,0,0,0,1.294-.461,2.2,2.2,0,0,0,.869-.867,6.294,6.294,0,0,0,.541-1.086,6.641,6.641,0,0,0,.274-1.485c.064-.65.1-1.212.119-1.675s.018-1.132.018-2.01V74.932c0-.739-.014-1.364-.039-1.871a14.255,14.255,0,0,0-.157-1.517,4.008,4.008,0,0,0-.936-2.156,2.41,2.41,0,0,0-.9-.671,5.984,5.984,0,0,0-1.262-.361,9.686,9.686,0,0,0-1.7-.128h-2.391V92.682Z" transform="translate(-350.17 -64.773)" fill-rule="evenodd" fill="url(#linear-gradient-5)"/>
          <path id="Path_12" data-name="Path 12" d="M462.6,95.76V65.07h4.344V95.76Z" transform="translate(-436.946 -64.773)" fill-rule="evenodd" fill="url(#linear-gradient-6)"/>
          <path id="Path_13" data-name="Path 13" d="M530.763,95.13q-4.323,0-6.238-2.64t-1.914-7.8V74.412a24.6,24.6,0,0,1,.242-3.7,11.546,11.546,0,0,1,.824-2.939,6.174,6.174,0,0,1,1.536-2.206,6.664,6.664,0,0,1,2.437-1.326,11.6,11.6,0,0,1,3.464-.468q4.4,0,6.336,2.161t1.926,6.818v1.125h-4.148v-.961c0-.867-.025-1.581-.078-2.136a7.99,7.99,0,0,0-.313-1.6A2.684,2.684,0,0,0,534.142,68a3.247,3.247,0,0,0-1.175-.657,5.868,5.868,0,0,0-1.8-.24,5.3,5.3,0,0,0-1.458.178,3.735,3.735,0,0,0-1.07.461,2.287,2.287,0,0,0-.739.8,6.311,6.311,0,0,0-.47,1,6.577,6.577,0,0,0-.267,1.264c-.059.511-.1.974-.11,1.4s-.021.942-.021,1.572V85.136a10.728,10.728,0,0,0,.883,5.068q.873,1.537,3.363,1.536a3.541,3.541,0,0,0,3.409-1.661,11.727,11.727,0,0,0,.915-5.351V82.579h-4.018V79.546h8.041V94.761h-2.816l-.424-3.537a5.5,5.5,0,0,1-5.625,3.911Z" transform="translate(-483.263 -63.77)" fill-rule="evenodd" fill="url(#linear-gradient-7)"/>
          <path id="Path_14" data-name="Path 14" d="M639.08,95.76V65.07h4.344V95.76Z" transform="translate(-573.158 -64.773)" fill-rule="evenodd" fill="url(#linear-gradient-6)"/>
          <path id="Path_15" data-name="Path 15" d="M701.69,95.76V65.07h4.422V79.529l7.272-14.459H717.5L711.221,78.6l7.292,17.159h-4.306l-6.375-15.215-1.72,3.128V95.76Z" transform="translate(-621.482 -64.773)" fill-rule="evenodd" fill="url(#linear-gradient-9)"/>
          <path id="Path_16" data-name="Path 16" d="M807.77,95.76V65.07h4.422V92.691h8.1V95.76Z" transform="translate(-703.357 -64.773)" fill-rule="evenodd" fill="url(#linear-gradient-10)"/>
          <path id="Path_17" data-name="Path 17" d="M907.7,95.592a10.842,10.842,0,0,1-3.521.511,11.041,11.041,0,0,1-3.534-.511,6.642,6.642,0,0,1-2.437-1.39,6.152,6.152,0,0,1-1.5-2.257,11.99,11.99,0,0,1-.778-2.925,27.623,27.623,0,0,1-.21-3.6V65.08h4.208V85.63c0,.872.025,1.631.078,2.275a10.553,10.553,0,0,0,.347,1.935,4.591,4.591,0,0,0,.719,1.568,3.373,3.373,0,0,0,1.234.967,4.816,4.816,0,0,0,3.744,0,3.268,3.268,0,0,0,1.221-.979,4.678,4.678,0,0,0,.719-1.561,10.67,10.67,0,0,0,.347-1.928c.046-.643.071-1.4.071-2.275V65.082h4.214v20.34a27.176,27.176,0,0,1-.21,3.6,11.924,11.924,0,0,1-.778,2.925,6.257,6.257,0,0,1-1.5,2.257,6.665,6.665,0,0,1-2.43,1.39Z" transform="translate(-771.239 -64.781)" fill-rule="evenodd" fill="url(#linear-gradient-11)"/>
          <path id="Path_18" data-name="Path 18" d="M1016.913,95.13q-4.323,0-6.238-2.64t-1.914-7.8V74.412a24.594,24.594,0,0,1,.242-3.7,11.546,11.546,0,0,1,.824-2.939,6.172,6.172,0,0,1,1.536-2.206,6.683,6.683,0,0,1,2.437-1.326,11.591,11.591,0,0,1,3.461-.468q4.4,0,6.336,2.161t1.926,6.818v1.125h-4.148v-.961c0-.867-.027-1.581-.08-2.136a7.982,7.982,0,0,0-.313-1.6,2.683,2.683,0,0,0-.694-1.175,3.227,3.227,0,0,0-1.175-.657,5.866,5.866,0,0,0-1.8-.24,5.287,5.287,0,0,0-1.456.178,3.779,3.779,0,0,0-1.072.461,2.309,2.309,0,0,0-.739.8,6.511,6.511,0,0,0-.47,1,6.423,6.423,0,0,0-.267,1.264c-.059.511-.1.974-.112,1.4s-.021.942-.021,1.572V85.136a10.727,10.727,0,0,0,.883,5.068q.873,1.537,3.363,1.536a3.539,3.539,0,0,0,3.409-1.661,11.725,11.725,0,0,0,.915-5.351V82.579h-4.018V79.546h8.041V94.761h-2.816l-.424-3.537a5.5,5.5,0,0,1-5.625,3.911Z" transform="translate(-858.486 -63.77)" fill-rule="evenodd" fill="url(#linear-gradient-12)"/>
        </g>
        <path id="Path_19" data-name="Path 19" d="M399.927,243.056a3.375,3.375,0,0,1-1.869-.5,2.647,2.647,0,0,1-1.088-1.36l.892-.5a1.963,1.963,0,0,0,2.088,1.371,2,2,0,0,0,1.228-.319,1.007,1.007,0,0,0,.424-.847.9.9,0,0,0-.424-.81,6.165,6.165,0,0,0-1.417-.573c-.324-.11-.573-.192-.746-.249a5.232,5.232,0,0,1-.643-.274,2.034,2.034,0,0,1-.575-.388,1.953,1.953,0,0,1-.342-.525,1.72,1.72,0,0,1-.151-.735,1.894,1.894,0,0,1,.714-1.558,2.679,2.679,0,0,1,1.741-.577,2.827,2.827,0,0,1,2.647,1.652l-.869.486a1.788,1.788,0,0,0-1.775-1.166,1.622,1.622,0,0,0-1.027.3.981.981,0,0,0-.39.819.865.865,0,0,0,.367.753,4.879,4.879,0,0,0,1.271.541c.212.071.363.123.454.157l.422.144a3.678,3.678,0,0,1,.42.162c.089.043.21.1.361.183a1.494,1.494,0,0,1,.34.228c.075.071.162.16.262.265a1,1,0,0,1,.217.319,2.427,2.427,0,0,1,.116.374,1.878,1.878,0,0,1,.05.447,1.906,1.906,0,0,1-.748,1.581,3.069,3.069,0,0,1-1.953.589Zm12.762-7.7v7.557h-1.027v-5.905l-2.556,4.112-.125,0L406.416,237v5.91h-1.038v-7.557h1.173l2.5,4.011,2.48-4.011h1.157Zm8.4,7.557-.639-1.7h-3.512l-.639,1.7H415.19l2.914-7.557h1.171l2.914,7.557h-1.107Zm-3.8-2.633H420.1l-1.4-3.731Zm12.039,2.633-1.75-2.893h-1.844v2.893H424.7v-7.557h3.126a2.4,2.4,0,0,1,1.72.685,2.219,2.219,0,0,1,.714,1.657,2.186,2.186,0,0,1-.452,1.339,2.423,2.423,0,0,1-1.166.853l1.841,3.023h-1.15Zm-3.594-6.617v2.818h2.088a1.334,1.334,0,0,0,.988-.415,1.371,1.371,0,0,0,.406-1,1.357,1.357,0,0,0-.406-.993,1.339,1.339,0,0,0-.988-.411h-2.088Zm12.191-.94v.952h-2.311v6.606h-1.027v-6.606h-2.3v-.952h5.636Zm8.443,0a3.525,3.525,0,0,1,2.651,1.1,3.942,3.942,0,0,1,0,5.367,3.525,3.525,0,0,1-2.651,1.1h-3.046v-7.557Zm0,6.608a2.563,2.563,0,0,0,1.953-.81,3.063,3.063,0,0,0,0-4.039,2.555,2.555,0,0,0-1.953-.81H444.36v5.656h2.008Zm6.544-6.608h1.038v7.557h-1.038Zm11.824,3.811v.454a3.208,3.208,0,0,1-1.05,2.455,3.915,3.915,0,0,1-2.779.977,4.051,4.051,0,0,1-2.953-1.139,3.9,3.9,0,0,1,0-5.558,4.275,4.275,0,0,1,4.915-.637,3.627,3.627,0,0,1,1.394,1.323l-.892.507a2.483,2.483,0,0,0-1.011-.988,3.033,3.033,0,0,0-1.49-.372,2.991,2.991,0,0,0-2.2.849,2.832,2.832,0,0,0-.86,2.1,2.8,2.8,0,0,0,.865,2.095,3.073,3.073,0,0,0,2.238.842,3.016,3.016,0,0,0,1.9-.557,2.249,2.249,0,0,0,.881-1.44h-2.868v-.908h3.906Zm2.839-3.811h1.038v7.557h-1.038Zm9.291,0v.952h-2.311v6.606h-1.027v-6.606h-2.3v-.952h5.636Zm7.181,7.557-.639-1.7H479.9l-.639,1.7h-1.1l2.914-7.557h1.171l2.914,7.557Zm-3.8-2.633h2.807l-1.4-3.731Zm8.445,1.684h3.37v.949h-4.408v-7.557h1.038Zm5.985-6.608h1.038v7.557h-1.038Zm5.113,6.608h3.872v.949h-5.1v-.876l3.776-5.729H498.67v-.952h4.906v.863Zm11.772.949-.639-1.7h-3.512l-.639,1.7h-1.1l2.914-7.557h1.171l2.914,7.557h-1.107Zm-3.8-2.633h2.807l-1.4-3.731Zm11.838-4.922v.951h-2.311v6.606h-1.027v-6.606h-2.3v-.951H519.6Zm2.6,0h1.038v7.557h-1.038ZM533,241.915a4.169,4.169,0,0,1-5.741,0,3.879,3.879,0,0,1,0-5.554,4.188,4.188,0,0,1,5.741,0,3.863,3.863,0,0,1,0,5.554Zm-5.022-.685a3.143,3.143,0,0,0,4.3,0,2.966,2.966,0,0,0,0-4.187,3.143,3.143,0,0,0-4.3,0,2.966,2.966,0,0,0,0,4.187Zm13.884-5.866H542.9v7.557h-.837l-4.018-5.645v5.645h-1.038v-7.557h.8l4.052,5.675Z" transform="translate(-386.291 -196.099)" fill="#0a689c"/>
      </g>
    </g>
  </g>
</svg>
